# xmcd
#
# Track frame offsets:
#	150
#	18260
#	37877
#	68885
#	93778
#	117748
#	132259
#	161265
#	188067
#	211915
#	238395
#	258490
#
# Disc length: 3691 seconds
#
# Revision: 1
# Processed by: cddbd v1.5.2PL0 Copyright (c) Steve Scherf et al.
# Submitted via: audiograbber 1.83.01
#
DISCID=a00e690c
DTITLE=Markus Fuchs - Wie du und ich
DYEAR=2009
DGENRE=Blues Worship
TTITLE0=De Wiischtock
TTITLE1=It is Joy
TTITLE2=Jahwe
TTITLE3=Ich lege dir mein Leben vor deine Fuesse
TTITLE4=Oh my God
TTITLE5=Grace
TTITLE6=Praise the Lord
TTITLE7=Die auf den Herrn vertrauen
TTITLE8=Din Name schtrahlt ueber alles
TTITLE9=Geheimnisvoller Gott
TTITLE10=Du bisch nid cho fuer di Graechte
TTITLE11=Heiwaeg
EXTD=2009, Schleife Verlag\nPflanzschulstrasse 17\nCH-8411 Winterthur\npublicat
EXTD=ions@schleife.ch
EXTT0=
EXTT1=
EXTT2=
EXTT3=
EXTT4=
EXTT5=
EXTT6=
EXTT7=
EXTT8=
EXTT9=
EXTT10=
EXTT11=
PLAYORDER=
